<?xml version="1.0" encoding="UTF-8"?>
<svg version="1.1" viewBox="0 0 2048 1493" width="266" height="194" xmlns="http://www.w3.org/2000/svg">
<path transform="translate(841,102)" d="m0 0h28l17 3 11 4 17 9 12 9 14 12 11 14 9 16 7 18 4 20 1 8v15l-3 19-5 15-5 11-8 14-13 16-9 11-11 14-10 14-8 16-4 13-1 6-1 25v185l24-8 25-6 12-2 6-4 141-141 4-5 8-7 21-21 7-8 6-7 10-19 4-14 4-20 2-15 2-28 5-21 6-15 8-15 10-13 11-12 13-10 15-8 24-8 13-2h27l16 3 19 8 13 7 12 9 10 9 9 10 10 15 9 19 5 19 2 14v12l-2 13-5 19-9 19-8 12-11 14-10 10-13 9-14 7-17 6-17 3-55 6-19 5-16 8-11 8-18 18h-2l-2 4-8 7-95 95-8 7-8 8-3 5 7 6 15 10 10 7 4 1h269l12-2 19-7 14-8 14-10 14-12 11-10 18-13 15-8 17-5 15-2h25l17 3 19 7 17 10 12 9 15 15 10 15 8 17 5 16 2 12 1 11v9l-2 17-4 15-6 15-11 18-11 13-8 8-14 10-16 8-16 5-19 3h-26l-18-3-13-5-17-9-17-12-12-10-10-8-16-13-16-9-13-5-12-3-208-1 2 10 13 51 3 6 12 11 170 170 13 9 13 6 24 7 14 2 40 2 17 4 16 6 15 8 11 8 12 11 11 14 8 13 6 12 5 16 2 16v20l-2 16-5 17-7 14-7 11-8 10-9 10-9 8-14 9-13 6-12 4-15 3-9 1h-21l-15-2-20-7-15-8-9-7-10-9-8-8-10-14-8-16-5-13-3-14-5-40-3-28-6-16-7-14-9-12-144-144h-2l-7 14-7 10-6 10-1 4-1 51v216l2 13 5 15 8 15 14 19 11 13 12 14 11 17 8 17 4 13 2 14v25l-3 19-7 19-9 16-10 13-9 10-14 11-16 9-10 4-18 4-7 1h-31l-18-3-14-5-16-9-14-11-8-8-11-15-8-14-8-21-4-20v-24l3-15 6-18 9-17 8-11 8-10 13-16 9-10 10-15 7-16 4-14 1-13v-152l1-49-24 8-23 6h-12l-8 7-73 73-8 7-96 96-9 11-7 11-7 16-5 23-5 46-5 23-7 16-8 15-13 16-11 10-16 11-15 7-19 5-19 2h-11l-19-2-16-4-17-8-14-10-13-12-11-13-8-13-8-17-5-20-1-8v-21l4-21 7-19 8-14 11-14 9-10 10-9 15-9 16-7 16-4 25-3 6-1 20-1 24-4 15-6 15-8 12-11 5-5 7-6 5-5 5-6 7-6 5-5 6-7 5-5 5-4 5-5 6-7h2v-2l8-7 64-64 3-4-2-4-14-8-11-7-9-6-4-1h-232l-37 1-10 2-17 8-16 10-14 12-13 10-16 12-25 13-24 8-10 2-11 1-21-1-17-3-15-6-13-7-12-9-12-11-10-13-9-16-8-20-3-12-1-7v-26l4-19 6-16 9-17 8-11 16-16 13-9 14-8 13-5 13-3 8-1h28l20 3 13 5 16 9 14 10 11 10 11 9 13 10 14 9 15 7 15 5 30 1 182 1-5-13-7-29-3-18-4-6-31-31-8-7-139-139-11-9-14-9-15-6-19-4-34-3h-11l-10-2-29-10-17-9-11-9-12-12-11-15-9-17-6-16-4-20v-16l3-19 7-21 8-15 8-11 9-11 9-9 12-9 16-8 16-6 19-4h26l18 4 14 5 21 11 14 11 8 8 10 13 7 12 9 23 3 16 3 31 4 29 4 15 8 18 8 10 10 10v2h2l4 4v2h2l4 5 5 5 4 3v2h2v2h2v2l4 2 4 4v2l4 2 90 90 8 10 3-3 13-22 8-15 2-13-1-254-3-15-6-15-9-16-11-14-9-11-14-18-10-15-9-19-4-13-3-20v-11l4-25 5-15 8-16 7-11 9-11 7-7 15-11 14-8 12-5 16-4zm10 78-9 2-11 6-9 9-6 13-1 3v14l4 11 6 10 9 8 11 4 11 1 14-3 11-7 7-9 5-12 1-12-2-10-4-8-6-8-10-7-9-4-5-1zm432 80-9 2-10 6-8 9-5 10-2 9 1 10 4 11 7 10 7 6 9 4 13 1 10-2 8-4 9-8 6-12 2-10v-9l-3-12-6-8-9-8-11-4zm-791 158-13 5-8 7-6 10-2 6-1 13 2 9 6 12 9 9 8 4 7 2h12l13-5 10-9 6-12 2-7v-13l-4-11-6-9-7-6-9-4-4-1zm1030 195-11 2-12 7-7 7-5 9-3 9v13l4 11 7 11 8 6 8 3 5 1h13l10-3 11-7 7-9 5-13v-13l-4-11-4-6-9-9-12-6zm-562 61-16 3-16 7-11 7-10 8-11 11-10 15-6 13-4 15-1 7v19l3 19 5 13 6 12 11 14 11 11 14 9 17 7 16 3h29l14-3 20-8 11-7 12-11 8-9 8-13 6-15 4-16v-26l-3-14-6-16-8-13-8-10-11-11-15-10-16-7-17-4zm-542 175-10 3-10 6-5 4-6 10-3 9v16l4 11 8 11 9 6 9 3h16l12-5 9-7 6-10 3-9v-16l-5-13-9-10-9-6-10-3zm1021 198-10 3-9 6-7 8-5 11-2 9 1 10 4 9 6 9 5 5 5 4 10 4 11 1 13-4 9-6 8-9 5-11 1-5v-9l-4-13-6-9-9-8-10-4-6-1zm-790 157-10 4-10 9-4 5-5 10-2 13 2 9 6 12 7 8 10 6 6 2h16l11-4 8-6 7-10 4-11 1-11-4-14-7-11-9-7-10-4zm437 76-10 3-10 6-9 10-4 9-2 14 2 10 7 14 5 6 8 5 12 3h12l13-4 9-7 6-8 4-9 1-4v-15l-4-11-7-10-10-7-10-4-5-1z" fill="#22B9C3"/>
<path transform="translate(487,337)" d="m0 0h26l18 4 14 5 21 11 14 11 8 8 10 13 7 12 9 23 3 16 3 31 4 29 4 15 8 18 8 10 10 10v2h2l4 4v2h2l4 5 5 5 4 3v2h2v2h2v2l4 2 4 4v2l4 2 90 90 8 10 3-3 13-22 8-15 2-13 1-85h1l1 23 1 68-2 7v4l2-2 2-7 4 1 1-5 7-8 10-9h2v-2l10-7 18-12 9-5 14 2h20l7-1h8v2l7 1 1 2 6 2v5h5l1 4v8l3 2 1 7 7 2v14l-5 4-24 12 10-3 2 1-7 4-4 1v2l-14 8-12 10-8 7-4 6-7 8-8 14-3 1-5 17-4 15v8h-1v19l5 25 4 13 8 13 10 13v3l4 2 7 8 6 5v2l5 2 14 5-12-5-5-3v-2l10 3 2 1v2l4 1 15 6 17 4 17 1 1 2-15 2h-7l-7-1 3 2 7 2 1 3 2 2 2 5-1 7-3 8 4-1-1 6h-3l-1 2v-4l-5 6 2 2-4 2-4 6-5 7-8 6-9 3h-8l-10-1-4-2-4 1-1-4-4-2-10-7-11-6-16-8-11-2h-24l29 1 10 4 5 3-2 1-12-4-34-1-25-1-40 1h-139l-39 1-16 4-12 5-10 6-10 7-16 12h-2l-1 3-14 10-14 9-11 6-15 7-9 3-14 3h-23l-17-2-13-4-11-5-8-4-9-6-10-9-9-10-8-13-4-10-5-14-3-14-2-19v-15l3-14 4-11 6-9 8-14 6-7h2l2-4 17-13 16-9 7-5 6-2 22-3h28l13 2 12 4 12 7 15 11 6 4 10 8 17 13 19 12 9 5 10 4 17 5 6 1h79l61-1h28l26-2 7-2v-2h4l-5-13-7-29-3-18-4-6-31-31-8-7-139-139-11-9-14-9-15-6-19-4-34-3h-11l-10-2-29-10-17-9-11-9-12-12-11-15-9-17-6-16-4-20v-16l3-19 7-21 8-15 8-11 9-11 9-9 12-9 16-8 16-6zm5 81-13 5-8 7-6 10-2 6-1 13 2 9 6 12 9 9 8 4 7 2h12l13-5 10-9 6-12 2-7v-13l-4-11-6-9-7-6-9-4-4-1zm-74 431-10 3-10 6-5 4-6 10-3 9v16l4 11 8 11 9 6 9 3h16l12-5 9-7 6-10 3-9v-16l-5-13-9-10-9-6-10-3z" fill="#22B9C3"/>
<path transform="translate(841,102)" d="m0 0h28l17 3 11 4 17 9 12 9 14 12 11 14 9 16 7 18 4 20 1 8v15l-3 19-5 15-5 11-8 14-13 16-9 11-11 14-10 14-8 16-4 13-1 6-1 25h-1l-1 23-2 96-1 29v37l-6 7-15 9-14 9-12 9-3 1-1 3-10 7h-5l-3-4v-41l-1-35-1-19-1-109-1-43h-2l-3-15-6-15-9-16-11-14-9-11-14-18-10-15-9-19-4-13-3-20v-11l4-25 5-15 8-16 7-11 9-11 7-7 15-11 14-8 12-5 16-4zm10 78-9 2-11 6-9 9-6 13-1 3v14l4 11 6 10 9 8 11 4 11 1 14-3 11-7 7-9 5-12 1-12-2-10-4-8-6-8-10-7-9-4-5-1z" fill="#CBE9F4"/>
<path transform="translate(882,598)" d="m0 0 14 2h20l7-1h8v2l7 1 1 2 6 2v5h5l1 4v8l3 2 1 7 7 2v14l-5 4-24 12 10-3 2 1-7 4-4 1v2l-14 8-12 10-8 7-4 6-7 8-8 14-3 1-5 17-4 15v8h-1v19l5 25 4 13 8 13 10 13v3l4 2 7 8 6 5v2l5 2 14 5-12-5-5-3v-2l10 3 2 1v2l4 1 15 6 17 4 17 1 1 2-15 2h-7l-7-1 3 2 7 2 1 3 2 2 2 5-1 7-3 8 4-1-1 6h-3l-1 2v-4l-5 6 2 2-4 2-4 6-5 7-8 6-9 3h-8l-10-1-4-2-4 1-1-4-4-2-10-7-11-6-16-8-11-2h-24l29 1 10 4 5 3-2 1-12-4v-2l-133-3-56-2-1-1-69-1-23-1v-1l16-1 82-2-22-2-20-1h-11l-17-2-3-2v-3l5-3 5-2 3-1 2-5 5-2h8v-2l11-2 6-1 2-2h6l8-3 13-4v-2h-27l-3-1-36-1h-13l-3-2 38-2 77-2h31l8 1v1l-39 1-9 1h-20l19 1h36l23-2 15-3 16-3 5-3 4-6v-10l-4-14-6-25 2 11-3-4-2-2-1-3v-17l2 4v7h2l-10-35v-11l1-4 3-20 4-10 6-12 1-5h3l5-4 8-12 1-5 3-4 1-1 2-5h2l5-11h2l-1-2-2 1 2-9 1-2 4 1 1-5 7-8 10-9h2v-2l10-7 18-12z" fill="#21D4C9"/>
<path transform="translate(1275,192)" d="m0 0h24l18 4 17 7 17 9v2l4 2 10 9v2h2l9 11 5 7 8 19 5 15v39l-4 15-6 15-4 5-5 9h-2v2h-2l-2 4-7 8-12 9-12 7-15 6-12 3-38 3-22 1-15 2-15 4-9 4-10 6-8 6h2l-2 4-1 3-11 9-6 7-3 2h-3v2l-4 3h-2v2l-8 7-6 5-6 4-3 3-3-1 12-13 10-11-10 6-11 5-6 3-7-1-1-3-2-1-1-4h-2v-10l-4 3-2-1 7-8 4-4 4-7-1-2-7 8-8 7-11 9-5 1v2l-2-1 7-8 6-7 7-6 7-8h2l2-4 3-4 2-4 7-6 9-11 1 3-9 11-8 9-4 6-3 1 1 2 6-7 5-5 6-7 6-8 8-16 10-24 5-14 2-12 1-19 3-26 2-9 7-22 5-13 11-18 9-10 8-6 6-5 14-6 13-4 16-4zm8 68-9 2-10 6-8 9-5 10-2 9 1 10 4 11 7 10 7 6 9 4 13 1 10-2 8-4 9-8 6-12 2-10v-9l-3-12-6-8-9-8-11-4z" fill="#21D4C9"/>
<path transform="translate(786,1081)" d="m0 0h2l-1 4h-2l-2 4-12 11-4 3 1 2 10-7 15-9 7-4 7 2 3 4 1 7-3 8-3 6-9 14-6 7-7 13 1 1 4-6 7-8h2v-2l5-5 13-12 5-6h2l2-4 9-10h2l-1 4-8 10-8 9h-2l-2 4-14 16-1 2h-2l-2 4-10 17-6 13-6 16-2 19-2 21-3 24h-2v-18l-1 13-2 20-5 15-4 10-7 14-6 6-1 4-10 4-13 7-16 11-11 4-13 3-19 1h-31l-19-8-7-5-11-6-5-4v-2l-4-2-11-10-10-13-6-14-4-8-2-8v-11h-6l-1-2v-8l2 3 2-12 4-12 3-5 2-10 8-18 5-8 10-13 9-8 11-8 15-7-2-2 17-7 14-4 16-2h24l13-2 20-4 18-6 16-8 9-7 7-6 7-4 4-4 9-7zm-137 123-10 4-10 9-4 5-5 10-2 13 2 9 6 12 7 8 10 6 6 2h16l11-4 8-6 7-10 4-11 1-11-4-14-7-11-9-7-10-4z" fill="#21D4C9"/>
<path transform="translate(1333,941)" d="m0 0 16 8 8 7 8 4 9 5 12 5 14 3 17 1 3-1 17 3 15 2 24 5 10 4-4 1-13-3-28-5-20-3 13 4 16 2 14 2 20 5 15 6 13 9 7 6 5 5 1 3h2l11 14 9 19 4 12 2 15v19l-2 13-7 22-8 15-11 13-12 12-11 7-10 5-7 3-18 5-7 1h-26l-21-3-13-4-10-6-9-6v-2l-4-2-12-12-4-5v-2h-2l-8-14-8-20-3-14-1-31-3-21-2-4 3 26 1 20v14l-2-3-2-29-1-4-1-17-3-17-2-12-5-14-6-11-10-15-7-9-5-7-2-5-6-8v-2l7-1 8 10 10 10v-2l-1-9-4-4v-4l3 1 1 3 2 1 1-3 6-4 14-1 12 4 1-1-10-9-3-2zm106 106-10 3-9 6-7 8-5 11-2 9 1 10 4 9 6 9 5 5 5 4 10 4 11 1 13-4 9-6 8-9 5-11 1-5v-9l-4-13-6-9-9-8-10-4-6-1z" fill="#21D4C9"/>
<path transform="translate(477,351)" d="m0 0h33l12 2 11 2v2l3-1v2l9 3 16 10 6 4 10 9 9 13 10 16 1 5 8 28 2 12v35l7 26 4 11 10 15 8 11-7-11-4-7 1-3 7 10 8 11 5 5 7 8 8 8v2l3 1-1 3-5-2v-2l-4-2-1-3-4-2-3-2v-2l-5-1-4-4 1 2 7 11 3 6v9h-3v6l-1 2h-2v2l-2 1h-9l-8-3 2 3-4-2-8-7 2 4 13 14 2 5-2 2 1 3-5-2-17-17v-2l-4-2-13-12-5-3-6-2-3-3-4-2-25-6-3-1-13-1-9-2-24-3-15-1-12-3-19-9-1-2 5 1 18 6 16 2h8l-16-2-12-3-16-6-11-5-10-5-14-12-9-10-7-10-6-10-5-10-1-7-2-16v-10l3-14 3-12 8-19 8-13 9-10 4-5 9-7 16-10 13-6zm15 67-13 5-8 7-6 10-2 6-1 13 2 9 6 12 9 9 8 4 7 2h12l13-5 10-9 6-12 2-7v-13l-4-11-6-9-7-6-9-4-4-1z" fill="#21D4C9"/>
<path transform="translate(1067,1217)" d="m0 0 13 2 9 2 1 1h14l6-3 7 1 10-2h10l13 10 7 6 4 6 11 9 6 3 7 10 6 10 3 2 10 26 2 12v20l-4 20-5 16-10 17-6 9-1 4-8 6-8 7-17 11-15 7-19 4-27 1-20-1-14-3-17-7-11-7-11-9-9-9-8-10-8-13-6-15-4-13-2-15 1-25 3-14 5-16 6-5 6-12 7-8 1-2h2l2-5 9-9 10-8 5-5 10-5h17zm19 63-10 3-10 6-9 10-4 9-2 14 2 10 7 14 5 6 8 5 12 3h12l13-4 9-7 6-8 4-9 1-4v-15l-4-11-7-10-10-7-10-4-5-1z" fill="#CBE9F4"/>
<path transform="translate(1275,180)" d="m0 0h27l16 3 19 8 13 7 12 9 10 9 9 10 10 15 9 19 5 19 2 14v12l-2 13-5 19-9 19-8 12-11 14-10 10-13 9-14 7-17 6-17 3-55 6-19 5-16 8-11 8-18 18h-2l-2 4-8 7-95 95-8 7-8 8-3 5 7 6 15 10 10 7 4 1h269l12-2 19-7 14-8 14-10 14-12 11-10 18-13 15-8 17-5 15-2h25l17 3 19 7 17 10 12 9 15 15 10 15 8 17 5 16 2 12 1 11v9l-2 17-4 15-6 15-11 18-11 13-8 8-14 10-16 8-16 5-19 3h-26l-18-3-13-5-17-9-17-12-12-10-10-8-16-13-16-9-13-5-12-3-208-1 2 10 13 51 3 6 12 11 170 170 13 9 13 6 24 7 14 2 40 2 17 4 16 6 15 8 11 8 12 11 11 14 8 13 6 12 5 16 2 16v20l-2 16-5 17-7 14-7 11-8 10-9 10-9 8-14 9-13 6-12 4-15 3-9 1h-21l-15-2-20-7-15-8-9-7-10-9-8-8-10-14-8-16-5-13-3-14-5-40-3-28-6-16-7-14-9-12-144-144h-2l-7 14-7 10-6 10-1 4-1 51-1 139-2 1-1-4-2-22-2-52-1-17v-14l-1-15v-15l3-28v-19l2-14 4-10 9-14 5-7 7-4 7 1 10 7 7 8 8 8v2h2l5 5 8 9 8 7 85 85 6 5 9 11 7 10 9 17 3 10 3 23 4 20 2 31 3 14 7 17 9 15 10 13 7 7 13 10 13 8 10 4 17 3 6 1h36l16-3 11-4 15-8 13-10 12-12 7-10 7-12 5-12 5-23 1-20-1-14-4-17-6-15-10-15-9-10v-2l-3-1-4-4v-2l-4-2-7-6-12-7-18-7-22-5-48-5-18-4-15-5-15-8-14-11-13-12v-2h-2l-7-9-3-4v-2l-4-2v-2h-2l-9-11-2-1v-2l-3-1-4-5-5-5-5-3-2-5-4-2-5-5-7-6-15-15v-2l-5-2-11-10-8-7-11-10v-2h-2v-2l-4-2-9-9-8-7-5-5v-2h-2v-2l-4-2-13-13-10-14-7-18-7-35v-8l4-7 3-2 16-2 20-2 48-1h85l37 1 15 3 15 6 12 6 10 9 11 8 11 7 9 8 13 10 19 11 11 3 26 3h17l18-2 17-4 16-8 8-6 8-7 9-11 7-11 7-14 6-17 1-4 1-15-1-18-5-21-9-21-12-16-5-4v-2l-4-2-13-10-10-6-13-6-14-5-14-2h-19l-21 5-11 4-11 6-11 8-14 10-9 8h-2v2l-5 2v2l-13 10-7 3-14 8-5 2-21 4-20 2-31 1h-31l-35-1h-76l-34 1h-45l-10-3-5-3v-2l-4-1v-2l-4-2-14-10-6-6-1-3v-7l3-7 6-8 9-8 7-8 6-6h2l1-3h2v-2l8-7 9-10 12-12h2v-2h2v-2h2l2-4 10-9 44-44h2l1-3h2l1-3h2v-2h2l1-3 8-7 11-8 14-7 13-4 19-3 32-3 17-1 15-3 16-6 16-8 11-8 4-2v-2l8-7 11-14 8-16 5-16 2-9 1-10v-18l-2-14-7-21-6-12-9-12-10-11-8-7-8-6-17-9-20-7-22-2-14 1-9 3-16 3-23 8-7 5h-2l-2 4-10 8-10 12-10 16-8 21-5 20-4 47-4 16-4 9-5 13-7 14-8 11-9 10-5 6-7 6-50 50-1 2h-2l-2 4-17 17h-2v2h-2l-1 3h-2l-2 4-14 14-5 6h-2l-2 4-16 16h-2l-1 3h-2v2h-2l-2 4-10 10-3 1-1 3-9 7-9 6-8 4-48 10h-7v-3l6-4 15-5 25-6 12-2 6-4 141-141 4-5 8-7 21-21 7-8 6-7 10-19 4-14 4-20 2-15 2-28 5-21 6-15 8-15 10-13 11-12 13-10 15-8 24-8z" fill="#0EA0A9"/>
<path transform="translate(487,337)" d="m0 0h26l18 4 14 5 21 11 14 11 8 8 10 13 7 12 9 23 3 16 3 31 4 29 4 15 8 18 8 10 10 10v2h2l4 4v2h2l4 5 5 5 4 3v2h2v2h2v2l4 2 4 4v2l4 2 90 90 8 10 3-3 13-22 8-15 2-13 1-85h1l1 23 1 68-2 7 1 6 2-2 1 3h-2l-1 4-4 9-2-1-2 8-2-1-4 10-8 11-6 4-10 21-3 16-1 11-1 4v9l8 26 1 8h-2l-1-4v13l4 12 4 17 2 8-1 4-3-3-7-26-3-14-2-13-4-6-31-31-8-7-139-139-11-9-14-9-15-6-19-4-34-3h-11l-10-2-29-10-17-9-11-9-12-12-11-15-9-17-6-16-4-20v-16l3-19 7-21 8-15 8-11 9-11 9-9 12-9 16-8 16-6zm-10 14-17 5-16 8-11 7-12 10-7 8-6 9-6 10-8 20-4 16-1 10 2 26 4 11 8 13 9 12 9 10 12 10 16 8 12 5 15 5 11 2 11 1-18-1-12-3-12-4-5-1 3 3 17 8 12 3 16 1 23 3 11 2 11 1 19 5 9 2 5 3 4 3 7 3 8 7 9 8h2l2 4 16 16 4 1v-4-4l-7-8-10-12 7 6 4 3 2-1-1-2 7 3h9l2-1v-2h2l1-5v-3h3v-9l-9-16-3-4 1 1 6 5h3l1 3 4 3h2l2 4 3 1v2l5 2 1-3-3-1-2-4-12-12-3-5-5-4-4-6-9-13-1 3 8 13 1 2-10-14-7-11-9-30-1-5v-35l-4-20-3-9-4-13-1-5-7-11-12-17-11-10-22-13-7-2-1-2-2 1v-2l-14-3-14-1z" fill="#23B9C4"/>
<path transform="translate(1085,989)" d="m0 0h10l5 2 5 5 8 7 5 12 2 5 2 19 2 38 1 13 3 4h2l1 63 2 13 5 15 8 15 14 19 11 13 12 14 11 17 8 17 4 13 2 14v25l-3 19-7 19-9 16-8 10-1-2 6-9 10-17 6-20 3-16v-20l-3-15-9-23-5-5-5-8-6-9-5-2-12-10-7-9-11-8-5-4h-10l-13 2-4-1-6 3h-15v-2l-22-3-10 1h-14l-14 7-1 3-11 9-7 7-3 5h-2l-2 4-8 11-4 8-6 7-6 20-1 7-1 25 2 15 7 21 6 12 8 12 14 15 16 12 16 8 14 4 6 1 30 1 17-1 22-5 17-9 13-9 10-9h2l-2 4-7 7-15 11-17 9-18 5-13 2h-31l-18-3-14-5-16-9-14-11-8-8-11-15-8-14-8-21-4-20v-24l3-15 6-18 9-17 8-11 3-4 5-3 9-10 6-9 6-5 5-8 4-4 8-14 4-11 1-5h2l2-20 1-13 1-29 1-62 3-24 2-6 2-9 4-10 8-7z" fill="#8ED1DD"/>
<path transform="translate(746,175)" d="m0 0 1 3-5 17-2 22v11l2 15 6 19 6 12 12 16 8 10 3 2v2l3 1 9 11 8 8 6 9 4 7 1-3 9 16 3 4 3 7 6 10 3 6 6 5 6 3 10 3h6l9-3h2l2-5 3-5 6-9 9-14 1 4 1-1 8-17 8-12 6-7h2l2-4 10-10 10-13 6-8 8-10 2-3 4 1-8 14-13 16-9 11-11 14-10 14-8 16-4 13-1 6-1 25h-1l-1 23-2 96-1 29v37l-6 7-15 9-14 9-12 9-3 1-1 3-10 7h-5l-3-4v-41l-1-35-1-19-1-109-1-43h-2l-3-15-6-15-9-16-11-14-9-11-14-18-10-15-9-19-4-13-3-20v-11l4-25 5-15z" fill="#8FD1DD"/>
<path transform="translate(408,771)" d="m0 0h28l20 3 13 5 16 9 14 10 11 10 11 9 13 10 14 9 15 7 15 5 30 1 178 1v3l-7 2-26 2h-29l-71 1h-68l-14-3-13-4-12-6-25-16-16-13-12-9-13-9-12-8-12-5-11-2-6-1h-28l-22 3-9 4-8 5-15 9-11 9-7 6-6 8-10 17-5 8-4 14-1 13v13l3 21 4 15 5 12 4 8 7 11 12 13 10 8 12 6 13 6 12 3 16 2h23l17-4 13-5 15-8 15-9 14-10 7-6 10-7 10-8 17-10 10-4 16-4 40-1h48l112 1h32l14 1 30 1 10 4 10 7 17 10 2 3 1 6-2 9-6 9-9 10-5 5-5 4-7 8-19 19-8 7-12 12h-2v2l-6 5-1 2h-2l-1 3-5 5h-2l-2 4-9 9-8 7-21 21-8 7-12 10-19 9-18 6-13 3-8 1-34 2-14 2-14 4-17 7-16 9-11 10h-2l-2 4h-2l-3 6h-2l-2 4-7 10-5 10-5 13-2 9-4 2 1-10 7-19 8-14 11-14 9-10 10-9 15-9 16-7 16-4 25-3 6-1 20-1 24-4 15-6 15-8 12-11 5-5 7-6 5-5 5-6 7-6 5-5 6-7 5-5 5-4 5-5 6-7h2v-2l8-7 64-64 3-4-2-4-14-8-11-7-9-6-4-1h-232l-37 1-10 2-17 8-16 10-14 12-13 10-16 12-25 13-24 8-10 2-11 1-21-1-17-3-15-6-13-7-12-9-12-11-10-13-9-16-8-20-3-12-1-7v-26l4-19 6-16 9-17 8-11 16-16 13-9 14-8 13-5 13-3z" fill="#0FA0A9"/>
<path transform="translate(846,108)" d="m0 0 23 1 29 6 16 8 7 3v2l4 2 8 5 5 6 5 5 7 9v2h2l8 16 5 15 3 21-1 17-4 2-5-5-4-8-6-9-9-11-5-3-6 2h-7l-7-2-7-1-17-8-14-7-18-5h-11l-7 1-12 6-17 13-5 2h-10l-8-1-8 5-5-1v-2l-10 2-5 2-3-3-2-8 1-11 3-13 5-8 8-11 4-5 15-9 5-5 12-5 5-3 16-5 2-2 12-1z" fill="#FCFDFD"/>
<path transform="translate(1040,1352)" d="m0 0 8 1 16 8 13 5 7 2 15 1 10-3 15-7h9l4 3 10-1 4 2 11 1 8 2h6l2 9-4 13-6 9-5 5h-2l-2 4-12 10-14 7-12 4-26 2h-21l-17-2-16-6-11-7-11-8-9-10-7-11-2-7v-7l5-6 4-3 9-3 11-1z" fill="#FCFEFE"/>
<path transform="translate(487,337)" d="m0 0h26l18 4 14 5 21 11 14 11 8 8 10 13 7 12 9 23 3 16 3 31 4 29 4 15 8 18 8 10 10 10v2h2l4 4v2h2l4 5 5 5 4 3v2h2v2h2v2l4 2 4 4v2l4 2 90 90 8 10 3-3 13-22 8-15 2-13 1-85h1l1 23 1 68-4 15-8 15-10 16-7 5-6-1-16-13-11-9-7-8-24-24-7-8-5-5v-2h-2v-2l-4-2-4-4v-2l-4-2-7-8-44-44-7-8-9-11-6-10-6-13-4-14-4-25-2-33-2-13-8-23-6-10-3-6-7-9v-2h-2l-7-8-10-8-15-9-18-8-22-5h-17l-20 3-18 6-16 8-11 7-12 11-8 10-7 10-8 16-5 18-3 21v13l1 1 1 14 3 9 4 7 6 10 8 11v2h2l9 11 8 7 10 7 14 7 19 7 11 2 27 3 34 5 29 10 8 5 8 6 7 5v2l4 2 5 6 5 4 7 8 24 24v2l4 2v2l3 1 7 8 8 7 4 4v2h2l46 46 2 1v2h2l7 8 5 5 10 9 5 5 1 3h2l6 8 6 5 3 5 10 10 4 6 3 16 5 17 4 17 2 8-1 4-3-3-7-26-3-14-2-13-4-6-31-31-8-7-139-139-11-9-14-9-15-6-19-4-34-3h-11l-10-2-29-10-17-9-11-9-12-12-11-15-9-17-6-16-4-20v-16l3-19 7-21 8-15 8-11 9-11 9-9 12-9 16-8 16-6z" fill="#0FA0A9"/>
<path transform="translate(1085,989)" d="m0 0h10l5 2 5 5 8 7 5 12 2 5 2 19 2 38 1 13 3 4h2l1 63 2 13 5 15 8 15 14 19 7 9-3 1-5-5-9-10-5-7-3-7-7-10-5-14-1-11-2-7-5-36-7-25-5-7-1-3-7-4h-16l-7 5-8 4-7 9-3 9-3 31-2 11h-1l1-40 1-62 3-24 2-6 2-9 4-10 8-7z" fill="#5FC5D0"/>
<path transform="translate(1040,947)" d="m0 0h10l4 4 2 10 1 15 1 48-2 19-1 64-1 33-1 14h-1l-1-124v-29l1-49-24 8-23 6h-12l-8 7-73 73-8 7-96 96-9 11-7 11-7 16-5 23-5 46-5 23-7 16-8 15-13 16-11 10-16 11-15 7-19 5-19 2h-11l-19-2-16-4-17-8-14-10-13-12-11-13-8-13-7-14 1-4 11 21 10 13 7 7v2l4 2 10 9 13 8 10 5 10 3 16 2h20l29-3 12-3 18-10 16-13 9-7 7-8 7-12 6-14 4-16 4-27 3-15 1-19 3-17 8-20 7-12 10-13 7-7h2l2-4 16-17 64-64 7-8 5-5 6-5 5-6h2v-2l4-4h2l2-4 24-24 8-10 11-9 9-8 14-7 16-3 17-7z" fill="#0FA1AA"/>
<path transform="translate(494,344)" d="m0 0h17l25 6 17 8 17 11 13 12v2h2l10 14 6 11 8 21 2 10 2 20 1 20 4 25 6 19 8 15 7 9 10 11 7 8 42 42-1 2-31-31-8-7-10-9-4-3v-2l-4-2-8-11-6-8 5 10 6 8-1 2-10-13-10-16-9-30-1-5v-35l-4-20-3-9-4-13-1-5-7-11-12-17-10-9-5-2v-2l-5-2-12-7-8-4h-2v-2l-11-1-12-2h-33l-17 5-16 8-11 7-11 9-7 8-6 9-6 10-8 20-4 16-1 10 2 26 4 11 8 13 9 12 9 10 14 11 22 10 18 6 11 2 11 1 2 2h-10l-16-2-18-6h-2l17 8 12 3 16 1 23 3 11 2 11 1 19 5 9 2 5 3h2v3l4 2 5 5v2l6 3v2l4 2 12 13h-3l-5-5-7-6v-2l-4-2-11-8-8-5-29-10-34-5-27-3-14-3-25-10-11-7-10-9-6-5-5-6v-2h-2l-13-19-5-10-3-5-1-5-1-14-1-1v-13l3-21 5-18 8-16 8-11 11-13 9-8 16-10 16-7 17-5z" fill="#0CC2B7"/>
<path transform="translate(1284,187)" d="m0 0 20 1 11 2 19 7 17 9 12 10v2l4 2 11 12 9 14 5 10 6 19 2 14v18l-2 14-5 19-8 16-8 11-11 12h-2v2l-12 9-16 9-15 6-13 3-6 1-31 2-26 3-18 4-12 5-10 5-10 8-7 6-1 2h-2v2l-5 4-28 28-3-1 4-4h2l1-4 4-4h2l2-4 7-7 7-8 5-5 8-7h2l1-4 1-2-2-1 10-8 10-6 14-5 14-3 16-1 26-2 29-2 13-4 13-5 12-7 10-8h2l2-4 7-8h2v-2h2l2-5 7-11 7-19 2-9v-39l-7-20-7-15-8-11-4-4v-2h-2l-7-8-7-5v-2l-5-2-19-9-13-5-15-3h-24l-28 7-18 7-6 4-10 8-6 5-9 13-7 12-7 20-5 16-3 23-2 26-1 11-3 10-3 7-12 29-7 12-7 10h-2l-2 4-4 5h-2l-2 4-4 4-2-1 6-7 8-10 6-7 4-5-1-1-8 10h-2l-2 4-4 4h-2v2l-4 1-2 4-10 9-6 5v-3l15-15h2l2-4 6-5 7-8 6-8 9-14 7-16 4-12 3-8 2-9 4-47 7-26 8-19 9-13 9-11 16-14 6-4 26-9 16-3 6-2z" fill="#0CC2B7"/>
<path transform="translate(818,475)" d="m0 0h1l3 26 4 32 3 16 4 10 7 7 8 6 7 1 9-2 3-1v-2l5-5 3-5 7-14 4-15 2-40 1-10h1v44l-1 29v37l-6 7-15 9-14 9-12 9-3 1-1 3-10 7h-5l-3-4v-41l-1-35-1-19z" fill="#60C6D1"/>
<path transform="translate(961,666)" d="m0 0h18l17 2 15 4 9 4 9 5 11 7 9 9 11 16 7 14 1 9 1 5 2 2 1 13 3 15-2 26-3 12-5 13-5 9-9 11-10 10h-2v2l-10 7-22 9-23 5h-25l-18-4-15-6-11-6-10-9-7-7-11-14-8-16-5-16-3-15-1-14 5-26 4-12 8-16 7-10 10-11 15-11 10-6 10-5 11-3zm-1 8-16 3-16 7-11 7-10 8-11 11-10 15-6 13-4 15-1 7v19l3 19 5 13 6 12 11 14 11 11 14 9 17 7 16 3h29l14-3 20-8 11-7 12-11 8-9 8-13 6-15 4-16v-26l-3-14-6-16-8-13-8-10-11-11-15-10-16-7-17-4z" fill="#0FA0AA"/>
<path transform="translate(676,870)" d="m0 0 35 2h10v1l-9 2 4-1h7l-1 2-7 3-3 6-3 3h-3l-2 5-6 3-1 2 1 3-9 1 9 3 17 2v1l-12 2 27 1 20 1 36 2 29 1 4 2 35 1 10 4 5 3-2 1-12-4v-2l-133-3-56-2-1-1-69-1-23-1v-1l16-1 82-2-22-2-20-1h-11l-17-2-3-2v-3l5-3 5-2 3-1 2-5 5-2h8v-2l11-2 6-1 2-2h6l8-3z" fill="#25C9C8"/>
<path transform="translate(786,1081)" d="m0 0h2l-1 4h-2l-2 4-12 11-4 3 1 2 10-7 15-9 7-4 7 2 3 4 1 7-3 8-3 6-9 14-6 7-7 13 1 1 4-6 7-8h2v-2l5-5 13-12 5-6h2l2-4 9-10h2l-1 4-8 10-8 9h-2l-2 4-14 16-1 2h-2l-2 4-10 17-6 13-6 16-2 19-2 21-3 24h-2v-18l-1 7h-1l-1-12 1-10v-22l4-13 4-11v-2l-8 16-1-3 6-16-3 3-3 4 1-7 3-10 2-13-4 3 2-13 1-9 1-5 2-2 1-3-4 2h-5v-2l-15 6-15 5-3-1 15-6 2-2-19 8-10 3-16 4-14 3-16 1h-15l-19 2-17 5-5 2h-6l4-3 19-7 15-3 9-1h24l13-2 20-4 18-6 16-8 9-7 7-6 7-4 4-4 9-7z" fill="#25C9C8"/>
<path transform="translate(625,535)" d="m0 0 8 10 8 11 5 5 7 8 8 8v2l3 1-1 3-5-2v-2l-4-2-1-3-4-2-3-2v-2l-5-1-4-4 1 2 7 11 3 6v9h-3v6l-1 2h-2v2l-2 1h-9l-8-3 2 3-4-2-8-7 2 4 13 14 2 5-2 2 1 3-5-2-17-17v-2l-4-2-13-12-5-3-6-2-3-3-4-2-25-6-3-1-13-1-9-2-24-3-15-1-12-3-19-9-1-2 5 1 18 6 16 2h8v-1l13 1 19 3 21 2 8 3 14 3 9 4v2l6 1v2l5 2 11 8-2-4-9-8-3-3-6-3-3-4 4-2 9 3-2-3 4-2-5-3-4-6v-2h8l5-2 4 1 2-4 5 6 1-4 4 1 2 1-2-8 6 5 7 8h1l-7-12 1-3 12 17-7-11-4-7z" fill="#25C9C8"/>
<path transform="translate(1040,1352)" d="m0 0 8 1 16 8 13 5 7 2 15 1 10-3 15-7h9l4 3 10-1 4 2 11 1 8 2h6l2 9-4 13-6 9-5 5-5 3-2 1 1-6 3-7v-3l-10-3-19-1-14-4-7-4-17-1-24-8-4-2h-8l-3 5-5 9-8 4-17 3-4 4v6l5 9 4 5-5-2-10-9-10-14-3-9v-7l5-6 4-3 9-3 11-1z" fill="#F1FEFE"/>
<path transform="translate(490,402)" d="m0 0h16l10 3 5 2 3 3 10 7 4 5 5 7 3 3 3 9 2 10v11l-6 18-6 10-8 8-11 6-11 4h-14l-10-3-11-7-7-8-9-14-4-14v-15l3-12 8-16 8-7 2-2 5-4zm2 16-13 5-8 7-6 10-2 6-1 13 2 9 6 12 9 9 8 4 7 2h12l13-5 10-9 6-12 2-7v-13l-4-11-6-9-7-6-9-4-4-1z" fill="#0CC2B7"/>
<path transform="translate(1355,951)" d="m0 0 5 1 12 7 16 6 16 4 14 2 39 4 22 5 20 8 14 9 7 6v2l4 2 14 16 10 16 6 17 3 13 1 14-1 20-5 23-6 14-8 13-8 10-12 12-14 10-19 9-12 3-8 1h-36l-18-3-10-3-10-5-11-7-14-12-9-10-7-10-9-16-6-16-2-11-1-21-2-17-1-4v-10l2 4 4 19 2 25v-14l-3-32-1-12 2 4 2 5 3 21 1 31 4 17 7 17 7 12v2h2l8 10 5 6 7 5v2l5 2 10 7 12 5 19 3 7 1h26l15-3 16-5 8-5 6-3 10-7 13-13 8-11 8-16 6-19 2-13v-19l-3-19-8-19-6-11-8-9v-2h-2l-2-5-3-1-13-11-12-7-18-6-19-4-24-3-13-4-16-1v-1h18l30 5 27 5h2l-19-5-16-3-15-2-19-3-15-2-18-5-16-8-9-6z" fill="#0CC2B7"/>
<path transform="translate(652,1190)" d="m0 0h18l9 4 8 7 7 7 5 10 3 9 3 8 1 9-2 9-5 10-3 7-3 5-5 4-5 6-10 6-7 1-13 1-11-3-11-7-7-7v-2h-2l-7-11-3-9-1-5v-14l3-13 8-16 7-6 10-6zm-3 14-10 4-10 9-4 5-5 10-2 13 2 9 6 12 7 8 10 6 6 2h16l11-4 8-6 7-10 4-11 1-11-4-14-7-11-9-7-10-4z" fill="#0CC2B7"/>
<path transform="translate(1437,1033)" d="m0 0h10l16 6v2l6 2 9 7 10 15 2 14v17l-3 10-8 13h-2l-2 4-9 7-7 3-16 2-13-2-7-4-6-4v-2h-2v-2h-2l-11-17-7-10v-27l3-6 8-10 5-5 14-9zm2 14-10 3-9 6-7 8-5 11-2 9 1 10 4 9 6 9 5 5 5 4 10 4 11 1 13-4 9-6 8-9 5-11 1-5v-9l-4-13-6-9-9-8-10-4-6-1z" fill="#0CC2B7"/>
<path transform="translate(1278,248)" d="m0 0h17l13 5 9 6v2l4 2 7 10 6 16v20l-6 14-8 12h-2v2l-10 6-8 4-7 2h-9l-13-3-10-5-9-11-6-9-5-15-1-10 5-19 6-11 9-9 7-5zm5 12-9 2-10 6-8 9-5 10-2 9 1 10 4 11 7 10 7 6 9 4 13 1 10-2 8-4 9-8 6-12 2-10v-9l-3-12-6-8-9-8-11-4z" fill="#0CC2B7"/>
<path transform="translate(1513,603)" d="m0 0h16l9 3 9 6 11 9 7 11 3 9v15l-3 16-6 12-8 9-10 6-9 3h-15l-12-4-11-8-7-7-5-9-4-9-1-5v-17l4-13 7-12 5-5h2v-2l10-6zm9 10-11 2-12 7-7 7-5 9-3 9v13l4 11 7 11 8 6 8 3 5 1h13l10-3 11-7 7-9 5-13v-13l-4-11-4-6-9-9-12-6z" fill="#0FA0A9"/>
<path transform="translate(1147,397)" d="m0 0 1 3-9 11-8 9-4 6-3 1 1 2 4-3h4l10-12 5-2-2 4-3 7 1 7 4-2 4 1 3 2 6-1 2 4 7-1 11-7 5-1 5-4 2 1-12 10h-2l-2 4-5 5-5 7 6-6h2l2-4 4-2v-2h2v-2h2v-2l16-11 5-2-5 5-7 5h2l-2 4-1 3-11 9-6 7-3 2h-3v2l-4 3h-2v2l-8 7-6 5-6 4-3 3-3-1 12-13 10-11-10 6-11 5-6 3-7-1-1-3-2-1-1-4h-2v-10l-4 3-2-1 7-8 4-4 4-7-1-2-7 8-8 7-11 9-5 1v2l-2-1 7-8 6-7 7-6 7-8h2l2-4 3-4 2-4 7-6z" fill="#25C9C8"/>
<path transform="translate(907,161)" d="m0 0h8l13 5 14 9 3 2v2l4 2 5 3 5-1 4-2 3 11 2 17-1 17-4 2-5-5-4-8-6-9-9-11-5-3h-8l-7-4-15-2-9-4-11-5-24-7v-2h13l3 1 9-3 17-3z" fill="#F0FEFE"/>
<path transform="translate(771,1226)" d="m0 0h1l-1 15-4 26-4 16-7 15-8 14-9 9-24 18-12 7-10 4-22 3-16 1h-17l-16-2-12-4-13-7-13-9-19-19-9-13-9-17-2-1-5-20v-6l4-1 2 1 2 15 4 11 9 18 12 14 10 8 5 5 21 12 16 7h39l17-2 16-5 11-7 8-6 17-8 5-2 1-4 6-7 4-7 5-13 4-10 3-14 1-19 1-7 2-1v14l-1 5h2l1-12z" fill="#0DC2B7"/>
<path transform="translate(414,840)" d="m0 0h11l10 2 9 5 10 7 5 6 5 8 3 8 1 6v11l-5 17-7 10-7 7-10 6-6 2-8 1h-13l-9-3-9-7-5-6-8-12-3-7-2-15 1-9 4-12 7-10 8-7 15-7zm4 9-10 3-10 6-5 4-6 10-3 9v16l4 11 8 11 9 6 9 3h16l12-5 9-7 6-10 3-9v-16l-5-13-9-10-9-6-10-3z" fill="#0FA0A9"/>
<path transform="translate(1173,640)" d="m0 0h13l15 2 12 4 10 6v3l-4 1-2-1v3h10v4l-6 4-24 4-16 2h-15l-7-2-4-4-1-7-1-3v-7l1-3 8-4h12z" fill="#25C9C8"/>
<path transform="translate(815,383)" d="m0 0h1l1 7 1 38 1 114 1 19 1 33v36l2 3 7-1 8-6 5-5 14-10 19-12 9-6 3-4v-43l1-28 2-91 1-29h1l1 132v59l4 1-1 3 4 3-2 1h-7l-2-1v4l-8-1-9 5-15 10-11 8h-2v2l-11 9-7 8-2 5-4-1-1 7-2 6-2-4 1-9 1-7-1-63-1 58h-1z" fill="#24B9C4"/>
<path transform="translate(1333,941)" d="m0 0 16 8 8 7 8 4 9 5 12 5 14 3 17 1 3-1 17 3 15 2 24 5 10 4-4 1-13-3-28-5-20-3 4 2h-22l-13-2-13-4h-1l2 1v2h-9l-16-5-5-1h-9l-3 1-1 3-2-3v-3l-2 1-3 12 3 7 4 7v5l-3-3-1 3-7-10-4-6-4-4v-2l-3-1-2-7-1-7-4-4v-4l3 1 1 3 2 1 1-3 6-4 14-1 12 4 1-1-10-9-3-2z" fill="#25CAC8"/>
<path transform="translate(494,410)" d="m0 0h10l10 3 13 8 7 7 6 10 3 12 1 9-2 8-4 10-6 10-8 7-11 5-13 3h-8l-11-4-10-9-7-10-4-8-2-7v-14l2-9 5-12 9-10 10-6zm-2 8-13 5-8 7-6 10-2 6-1 13 2 9 6 12 9 9 8 4 7 2h12l13-5 10-9 6-12 2-7v-13l-4-11-6-9-7-6-9-4-4-1z" fill="#0FA0A9"/>
<path transform="translate(783,797)" d="m0 0 2 2 5 23 5 17v10l-6 8-8 3-12 2-15 3-24 2h-42l-12-1-1-2h22l32-2h-35l-8-1-36-1h-65l-12-2-15-5-9-4-8-4v-2l-6-2-2-1v-2l-6-2-11-8-11-9-4-5 4 1 12 10 15 10 17 11 13 5 17 5 6 1h79l61-1h28l26-2 7-2v-2h4l-1-4 1-5-5-19-4-15 1-4 3 5z" fill="#0CC1B7"/>
<path transform="translate(769,148)" d="m0 0 1 2-3 7v13l9-1 17-3 21 1 3 1v2l5 1 3 3 1-2 2 3-9 6-13 8h-20l-4 2h-6l-2-1-9 1-4 1-4-5v-17l2-7 5-8z" fill="#F1FEFE"/>
<path transform="translate(929,602)" d="m0 0h9l1 2 6 2v5h5l1 4v8l3 2 1 7 7 2v14l-5 4-24 12 10-3 2 1-7 4-4 1v2l-14 8-12 10-8 7-4 6-7 8-8 14h-1l1-7 6-10 6-9 7-8 6-5 10-10 4-5-2-1 2-5 4-3h2l1-8v-4l6-1 2-4 2-2-1-6 4-1-1-8h3l1 1 2-10-3-6-5-3h-7l-7-2 4-2z" fill="#25C9C8"/>
<path transform="translate(451,548)" d="m0 0 5 1 18 6 16 2h8v-1l13 1 19 3 21 2 8 3 14 3 9 4v2l6 1v2l5 2 14 10 7 6 9 11 7 8-2 4 1 3-5-2-17-17v-2l-4-2-13-12-5-3-6-2-3-3-4-2-25-6-3-1-13-1-9-2-24-3-15-1-12-3-19-9z" fill="#25C9C8"/>
<path transform="translate(914,863)" d="m0 0 10 3 2 1v2l4 1 15 6 17 4 17 1 1 2-15 2h-7l-7-1 3 2 7 2 1 3 2 2 2 5-1 7-3 8 4-1-1 6h-3l-1 2v-4l-5 6 2 2-4 2-4 6-5 7-8 6-9 3h-8l-10-1-3-4h3l4 1h15l13-8 8-12-10 2 3-6h-3l1-6h-3l2-8h-2l1-10 3 3 1-5 3 1v-3l7 1v-2l-5-2-8-5-8-3 2-2 13 4 1-1-4-1-17-7 4-1-12-5-5-3z" fill="#25CAC9"/>
<path transform="translate(1285,254)" d="m0 0 13 2 10 5 8 6 7 8 6 17v15l-5 13-6 9-9 8-11 5-14 1-12-2-8-4-8-8-6-10-4-11-1-8 1-11 6-15 10-11 12-7zm-2 6-9 2-10 6-8 9-5 10-2 9 1 10 4 11 7 10 7 6 9 4 13 1 10-2 8-4 9-8 6-12 2-10v-9l-3-12-6-8-9-8-11-4z" fill="#0FA1AA"/>
<path transform="translate(648,1198)" d="m0 0h14l12 3 9 6 6 7 8 14 3 12v11l-8 16-7 9-9 7-8 3-10 1h-9l-13-5-7-6v-2h-2l-7-10-5-13v-17l6-15 8-11 11-7zm1 6-10 4-10 9-4 5-5 10-2 13 2 9 6 12 7 8 10 6 6 2h16l11-4 8-6 7-10 4-11 1-11-4-14-7-11-9-7-10-4z" fill="#10A1AA"/>
<path transform="translate(1438,1040)" d="m0 0h8l13 4 13 8 6 6 8 18v18l-3 10-10 14-11 8-14 3h-8l-10-2-6-3-11-10-6-10-3-6-1-5v-8l3-1 4 16 7 11 3 3v2l4 2 9 5 9 2 11-1 12-5 9-8 6-10 3-10v-9l-4-13-6-9-8-7-10-4-6-1h-10l-10 3-9 6-6 7-6 12-3-1-1-6 3-6 8-10 14-10z" fill="#10A1AA"/>
<path transform="translate(910,686)" d="m0 0h2l-2 4-9 7-10 12-8 14-6 15-5 23-1 8 2 18 5 21 7 16 9 13 14 15 8 7 10 5 18 7 16 3 8 1v2h-10l-18-4-22-8-4-2v2l20 8-4 1-15-6-3-2v-2l-4-2-13-13-4-7-10-13-5-9-4-13-5-25v-20l1-1 1-9 5-20 5-13 2 2 7-13 9-10 5-5z" fill="#0CC2B7"/>
<path transform="translate(1080,1273)" d="m0 0h18l8 2 6 4 5 3 5 5 4 5 5 10 1 1 1 8v12l-3 12-3 7-4 6-4 1 8-14 2-7v-15l-4-11-6-9-10-7-10-4-5-1h-8l-10 3-10 6-8 9-4 9-2 14 2 10 7 14 4 5 8 5 12 3 13 1v1h-18l-10-3-6-4-4-4-5-8-3-7-2-6-1-14 4-17 6-10 8-7 9-7z" fill="#8ED1DD"/>
<path transform="translate(709,1124)" d="m0 0h5l-2 2-15 5-9 2-11 1h-22l-20 3-18 6-7 3v3l-17 8-17 14-8 10-6 9-5 10-4 10-3 12-3 7-3 8-2 12-2 1-1-4v-13l2-12 4-1 4-15 6-14 10-14 2-3h2l2-4 5-6 8-7 8-6 16-8 14-6 14-4 14-2 36-2 15-3z" fill="#0CC2B7"/>
<path transform="translate(1289,954)" d="m0 0 5 1 9 12 5 4 3 3 8 17 6 10 5 13 6 23 2 9v5l-2 1-2-4 3 26 1 20v14l-2-3-2-29-1-4-1-17-3-17-2-12-5-14-6-11-10-15-7-9-5-7-2-5-6-8v-2z" fill="#25C9C8"/>
<path transform="translate(892,398)" d="m0 0h1l1 132v59l4 1-1 3 4 3-2 1h-7l-2-1v4l-8-1-4 1 5-5 5-6v-43l1-28 2-91z" fill="#23B8C3"/>
<path transform="translate(841,102)" d="m0 0h28l17 3 11 4 17 9 12 9 14 12 11 14 7 12-1 2-5-8v-2h-2l-4-6v-2l-3-1-3-4v-2l-4-2-4-5-7-4-4-3v-2l-7-2-9-5v-3l-6-2-11-4-8-2-22-1-5-2-9 1-5-1-2 1-1 3-3-1-8 2h-7l-4 3-11 4-5 4-9 4-6 2 5-5 13-8 13-6 14-4z" fill="#19AAB3"/>
<path transform="translate(1175,1400)" d="m0 0h2l-2 4-7 7-15 11-17 9-18 5-13 2h-31l-18-3-14-5-16-9-5-5 5 2 8 3 12 6 14 4 6 1 30 1 17-1 22-5 17-9 13-9z" fill="#90D2DE"/>
<path transform="translate(792,916)" d="m0 0h60l13 4 15 8 16 10 5 4 2 4v3l-3-1-6-7-2-1v-2l-4-2-12-7 5 4 8 5v2l4 2 2 2 1 8-2 2-3-10-5-2-17-10-9-6-6-2-34-1-10-1h-36l-18-1v-1l40-1 25 1 34 1 13 4-10-5-4-1-62-2z" fill="#0CC1B7"/>
<path transform="translate(848,178)" d="m0 0h10l11 3 10 6 5 4v2h2l6 9 4 15v9l-5 16-6 8-5 5-9 6-5 2-7 1h-11l-9-2-9-5-5-5-6-9-4-11 1-3 8 16 7 8 10 5 15 2 14-3 11-7 6-8 5-12 1-12-2-10-4-8-5-6v-2l-4-2-10-6-10-3-13 1-7 3-3-1 9-5z" fill="#95D4DF"/>
<path transform="translate(698,861)" d="m0 0h38l8 1v1l-39 1-9 1h-20l12 1-1 2-12 1h-30l-3-1-36-1h-13l-3-2 38-2z" fill="#25C9C8"/>
<path transform="translate(882,598)" d="m0 0 7 2v4h-6l-13 8-18 12-11 9-9 9-5 3h-2l2-6 8-8 8-7h2v-2l10-7 18-12z" fill="#26CAC9"/>
<path transform="translate(841,102)" d="m0 0h28l-5 4-6 1-5-2-9 1-5-1-2 1-1 3-3-1-8 2h-7l-4 3-11 4-5 4-9 4-6 2 5-5 13-8 13-6 14-4z" fill="#27B1BB"/>
<path transform="translate(1021,1416)" d="m0 0 5 2 10 6 14 6 16 4h44l21-4 3 1-8 3-14 3-7 1h-31l-18-3-14-5-16-9z" fill="#24B6C1"/>
<path transform="translate(1051,1153)" d="m0 0 3 1v14l-2 6h-2l-1 7-5 13-8 13-3 1-2 5-7 8h-2l-2 4-6 8-9 10-2-1 11-14 9-10 11-14 8-14 6-16 2-8z" fill="#36BDC8"/>
<path transform="translate(932,593)" d="m0 0h9l-1 4-4 1-13 2-12 1h-17l-4-1v-4h10z" fill="#25C9C8"/>
<path transform="translate(1131,1168)" d="m0 0 2 2 5 15 8 15 14 19 7 9-3 1-5-5-9-10-5-7-3-7-7-10-5-14v-6z" fill="#29B9C4"/>
<path transform="translate(914,863)" d="m0 0 10 3 2 1v2l4 1 15 6 17 4 17 1 1 2-15 2h-7l-10-1v-2l-4-1-17-7 4-1-12-5-5-3z" fill="#24C9C7"/>
<path transform="translate(515,559)" d="m0 0 15 1 21 2 8 3 14 3 9 4v2l4 2 5 4v2l4 2 1 2-4-2-7-4v-2l-5-2-13-5-19-5-33-5z" fill="#0CC2B7"/>
<path transform="translate(839,104)" d="m0 0 7 1 7-1 5 2 22 1 17 5 8 4v2l-4-1-26-6-21-2h-8l-3 1h-7l1-5z" fill="#C3E6F1"/>
<path transform="translate(810,113)" d="m0 0 4 1-7 2-1 4-18 7-10 8-5 3-4 6-8 9-3 6-5 7-4 7-2 1 3-9 9-15 11-13 11-10 10-4 10-5 6-4z" fill="#8FD2DE"/>
<path transform="translate(792,916)" d="m0 0h60l13 4 15 8 16 10 5 4 2 4v3l-3-1-6-7-2-1v-2l-4-2-12-7-7-2-3-3-8-4-4-1-62-2z" fill="#0CC2B7"/>
<path transform="translate(848,178)" d="m0 0h10l11 3 10 6 5 4v2h2l6 9 4 15v9l-5 16-4 2 2-6 3-8 1-12-2-10-4-8-5-6v-2l-4-2-10-6-10-3-13 1-7 3-3-1 9-5z" fill="#94D3DF"/>
<path transform="translate(892,499)" d="m0 0h1l1 31v59l-3 1-1-2 1-61z" fill="#30ADB7"/>
<path transform="translate(861,170)" d="m0 0 10 2 18 6 13 6 8 2 9 1 7 4 4 2-2 1h-7l-7-2-7-1-17-8-14-7-14-4z" fill="#FDFEFE"/>
<path transform="translate(910,686)" d="m0 0h2l-2 4-9 7-10 12-8 14-6 15h-2l-2 11-2 6h-2l2-11 4-15 4-10 2 2 7-13 9-10 5-5zm-42 69 2 1-1 2z" fill="#0CC2B7"/>
<path transform="translate(717,1127)" d="m0 0 3 1-10 4-24 5-16 1h-15l-19 2-17 5-5 1 4-3 16-5 13-2 12-1h15l18-2 22-5z" fill="#0CC2B7"/>
<path transform="translate(816,654)" d="m0 0 2 2 2-2 1 3h-2l-1 4-4 9-2-1-2 8-2-1-4 10-8 11h-3l3-3h-3v-3l5-5 12-20z" fill="#0EC2B8"/>
<path transform="translate(466,556)" d="m0 0 11 2 29 3 37 5 13 4 7 2-1 2-18-5-13-1-9-2-24-3-15-1-12-3-5-2z" fill="#23B9C4"/>
<path transform="translate(936,304)" d="m0 0 2 1-9 11-11 14-10 14-8 16-4 11h-1l1-8 8-18 7-12 11-13 13-15z" fill="#2EBBC6"/>
<path transform="translate(1419,973)" d="m0 0 13 2 25 4 19 4 10 4-4 1-13-3-28-5-18-3v-2h-5z" fill="#25C6C8"/>
<path transform="translate(1170,1233)" d="m0 0h2l9 11 8 11 8 14 6 14 4 15v9h-1l-4-19-5-13-3-6-6-11-18-22z" fill="#31BCC7"/>
<path transform="translate(451,548)" d="m0 0 5 1 18 6 16 2h8v-1l7 1 9 2v1l-9 2-28-3-15-4-11-6z" fill="#23C8C6"/>
<path transform="translate(1206,1332)" d="m0 0h1v9l-4 16-6 15-8 14-8 10-1-2 6-9 10-17 6-20 3-15z" fill="#8AD0DC"/>
<path transform="translate(1050,1314)" d="m0 0h2v8l2 10 7 14 4 5 8 5 12 3 13 1v1h-18l-10-3-6-4-4-4-5-8-3-7-2-6-1-14z" fill="#9AD6E2"/>
<path transform="translate(785,919)" d="m0 0h20l16 1 30 1v2h-31l-10-1h-36l-18-1v-1z" fill="#11BFBA"/>
<path transform="translate(1175,1400)" d="m0 0h2l-2 4-7 7-15 11-17 9-4-2 9-5 11-6 13-9z" fill="#69C9D4"/>
<path transform="translate(987,1375)" d="m0 0 3 1 10 16 14 15 14 11 1 2-5-2-6-3-12-11-11-14-8-13z" fill="#89D1DC"/>
<path transform="translate(957,167)" d="m0 0h2l8 20 4 20 1 8v15l-2 11h-1v-29l-2-13-7-24z" fill="#8FD2DE"/>
<path transform="translate(833,107)" d="m0 0 1 2 2 1-15 5-12 5-3 2-3-1 3-1 1-4 4-2h3v-2l4-3h8z" fill="#C2E6F1"/>
<path transform="translate(1355,951)" d="m0 0 5 1 12 7 16 6 16 4 5 1-3 2-12-2-14-4-16-8-9-6z" fill="#11BFB9"/>
<path transform="translate(922,596)" d="m0 0h11l-1 2-16 3h-22l-1-3 16-1z" fill="#0CC2B7"/>
<path transform="translate(921,126)" d="m0 0 5 1 14 12 11 14 7 12-1 2-5-8v-2h-2l-4-6v-2l-3-1-3-4v-2l-4-2-4-5-7-4-4-3z" fill="#20AEB8"/>
<path transform="translate(848,178)" d="m0 0h10l11 3 10 6 5 5-5-1-9-6-7-3-5-1-13 1-7 3-3-1 9-5z" fill="#98D5E1"/>
<path transform="translate(655,1133)" d="m0 0h7l-6 3-18 2-17 5-7 2v2h-6l4-3 19-7 15-3z" fill="#24C8C8"/>
<path transform="translate(1021,1416)" d="m0 0 5 2 10 6 14 6 16 4 3 3-13-2-14-5-16-9z" fill="#3ABEC9"/>
<path transform="translate(746,175)" d="m0 0 1 3-5 17-3 33h-1l-1-20 4-20 4-12z" fill="#94D4E0"/>
<path transform="translate(1030,1210)" d="m0 0 1 3-7 8h-2l-2 4-6 8-9 10-2-1 11-14 9-10z" fill="#29B8C3"/>
<path transform="translate(878,724)" d="m0 0h1l1 6-3 8h-2l-2 11-2 6h-2l2-11 4-15 1-3h2zm-10 31 2 1-1 2z" fill="#1AC1C0"/>
<path transform="translate(874,928)" d="m0 0 5 2 10 6 3 2v2l4 2 6 7 1 8-2 2-5-13-7-6-4-4-10-6z" fill="#26CAC9"/>
<path transform="translate(777,772)" d="m0 0 2 3 4 13 1 8h-2l-1-4v10l-2-2-3-16-4-6 1-3 5 5z" fill="#0EC1B8"/>
<path transform="translate(1438,1035)" d="m0 0h8l5 1v1l-14 1-12 4-11 8-5 5-2-1 10-10 10-6 5-2z" fill="#25C8C8"/>
<path transform="translate(1233,409)" d="m0 0 3 1-19 7-9 5-7 5h-2l2-4 9-6 9-4z" fill="#25C5C7"/>
<path transform="translate(841,102)" d="m0 0h28l-5 4-6 1-5-2-9 1-3-2z" fill="#1AACB6"/>
<path transform="translate(505,557)" d="m0 0 13 1 11 2v1l-13-1-1 1 20 2 1 2-4 1-23-4 1-3-5-1z" fill="#26CAC9"/>
<path transform="translate(1145,1204)" d="m0 0 5 5 7 9 5 3 5 7-3 1-5-5-9-10-5-7z" fill="#25B9C3"/>
<path transform="translate(810,113)" d="m0 0 4 1-7 2-1 4-18 7-10 8-2-1 7-7 9-5 8-3 5-4z" fill="#90D2DE"/>
<path transform="translate(1198,1364)" d="m0 0 2 1-8 16-10 14-2 1 2-6 6-8 8-14z" fill="#91D3DF"/>
<path transform="translate(919,589)" d="m0 0h7l-2 2-14 4-2 1h-7l-5-2v-1z" fill="#0CC1B7"/>
<path transform="translate(1334,1068)" d="m0 0h2l2 20v20l-2-3-2-29z" fill="#26CAC9"/>
<path transform="translate(968,243)" d="m0 0h1l-1 9-4 12-1 2h-2l-1-6z" fill="#89D0DC"/>
<path transform="translate(1175,1400)" d="m0 0h2l-2 4-7 7-12 9-3-2 17-13z" fill="#92D3DF"/>
<path transform="translate(1051,1153)" d="m0 0 3 1v14l-2 6h-2v3h-2l2-11z" fill="#2ABAC5"/>
<path transform="translate(1204,417)" d="m0 0 2 1-12 9-10 8-6 6h-2v2l-2-1 5-6h2v-2h2v-2h2v-2l16-11z" fill="#26CAC9"/>
<path transform="translate(824,918)" d="m0 0h30l10 4 5 3-2 1-12-4v-2l-31-1z" fill="#25C7C8"/>
<path transform="translate(783,714)" d="m0 0 1 4-4 17-3 7-1-4 3-16z" fill="#26CAC9"/>
<path transform="translate(737,211)" d="m0 0h1v17h2l1 15-2 1-3-17v-11z" fill="#6ECAD6"/>
<path transform="translate(1063,1350)" d="m0 0 10 6 12 3 13 1v1h-18l-10-3-6-4z" fill="#97D5E1"/>
<path transform="translate(801,114)" d="m0 0 2 1-2 4-5 3-7 3-6 2 5-5z" fill="#26B6C1"/>
<path transform="translate(1087,1278)" d="m0 0h7l11 3 2 3-13-3h-8l-11 2 2-3z" fill="#39BEC9"/>
<path transform="translate(1131,1323)" d="m0 0h1l-1 10-4 9-4 6-4 1 8-14 3-11z" fill="#92D2DE"/>
<path transform="translate(891,699)" d="m0 0m-1 1m-1 1 2 1-1 5-9 15h-1l1-7 6-10z" fill="#1BC5C1"/>
<path transform="translate(978,1349)" d="m0 0 2 1 6 18 2 4v3h-2l-8-20-1-5z" fill="#93D3DF"/>
<path transform="translate(1205,1307)" d="m0 0h3v25h-2z" fill="#97D5E0"/>
<path transform="translate(1147,397)" d="m0 0 1 3-9 11-8 7-1-3 5-4 7-8z" fill="#25C6C8"/>
<path transform="translate(1198,1276)" d="m0 0h2l5 13 2 9v9h-1l-4-19-4-9z" fill="#31BCC7"/>
<path transform="translate(1383,964)" d="m0 0 17 4 9 2-3 2-12-2-10-3z" fill="#16BEBC"/>
<path transform="translate(880,108)" d="m0 0 10 2 11 4 4 2v2l-4-1-14-5-6-2z" fill="#8FD1DD"/>
<path transform="translate(780,785)" d="m0 0 2 4 3 16 1 6-3-4-2-2-1-3z" fill="#24C3C7"/>
<path transform="translate(848,104)" d="m0 0 14 2 18 1v1h-17l-1 1h-7v-2h-3v-2z" fill="#9ED7E3"/>
<path transform="translate(1131,1430)" d="m0 0 3 1-8 3-16 3 1-3z" fill="#39BEC9"/>
<path transform="translate(1072,1283)" d="m0 0h2v2l-9 6-7 8-3 3 2-6 5-6z" fill="#37BEC9"/>
<path transform="translate(936,304)" d="m0 0 2 1-9 11-4 4v-3l9-11z" fill="#36BDC8"/>
<path transform="translate(1153,420)" d="m0 0 10 5-2 2h-4v-2l-3 2-4-1z" fill="#26CAC9"/>
<path transform="translate(788,325)" d="m0 0h2v2h2l10 15 1 4-4-4-10-14z" fill="#3EC0CB"/>
<path transform="translate(1018,1225)" d="m0 0v3l-9 11-4 4-2-1 9-11 3-1 2-4z" fill="#2CBAC5"/>
<path transform="translate(914,863)" d="m0 0 10 3 2 1v2l4 1 4 2-3 1-12-5-5-3z" fill="#25C8C8"/>
<path transform="translate(1427,1038)" d="m0 0m-2 1h2v2l-9 6-9 8-2-1 10-10z" fill="#26CAC9"/>
<path transform="translate(910,686)" d="m0 0h2l-2 4-9 7-3 3-2-1 5-5z" fill="#0CC2B7"/>
<path transform="translate(739,202)" d="m0 0h1v15l-1 11h-1l-1-20z" fill="#90D2DE"/>
<path transform="translate(781,127)" d="m0 0 2 1-14 14h-2l2-4 7-7z" fill="#24B2BD"/>
<path transform="translate(1112,1286)" d="m0 0 4 2 6 4 4 6-1 3-6-8-7-5z" fill="#39BEC9"/>
<path transform="translate(773,760)" d="m0 0 2 1 2 8v7l-2-3-4-11z" fill="#1DC6C2"/>
<path transform="translate(882,192)" d="m0 0 4 1 6 9-1 4-8-11z" fill="#6FCAD6"/>
<path transform="translate(542,1259)" d="m0 0h1l3 16-2 3-3-11v-7z" fill="#13A3AC"/>
<path transform="translate(944,148)" d="m0 0 4 1 9 14 1 4-3-2-3-6v-2h-2l-4-6v-2z" fill="#40BAC4"/>
<path transform="translate(833,103)" d="m0 0h11v1l-7 2-1 3h-2v-2h-4v-3z" fill="#14A7B1"/>
<path transform="translate(1147,1203)" d="m0 0 5 5 7 10h-3l-7-9-3-3z" fill="#14A4AE"/>
<path transform="translate(1051,1153)" d="m0 0 3 1v14l-2 6-1-3 1-10h-1z" fill="#56C4CF"/>
<path transform="translate(857,102)" d="m0 0h12l-5 4-6 1 2-1v-2l-4-1z" fill="#53C5D0"/>
<path transform="translate(1190,1259)" d="m0 0 4 4 6 13-3-1-7-14z" fill="#3BBECA"/>
<path transform="translate(884,717)" d="m0 0 1 2-5 10-3-3 1-4 2-3 1 2z" fill="#13C0BB"/>
<path transform="translate(821,645)" d="m0 0 3 1-1 6-1 3-4 1 2-9z" fill="#25C9C8"/>
<path transform="translate(1233,409)" d="m0 0 3 1-17 6-2-1 4-3z" fill="#26CAC9"/>
<path transform="translate(1198,1364)" d="m0 0 2 1-6 13-2-1 2-6z" fill="#9AD6E2"/>
<path transform="translate(1204,1346)" d="m0 0h1l-1 8-4 10h-2l3-9z" fill="#5EC6D2"/>
<path transform="translate(1199,422)" d="m0 0 3 1-6 8h-3l2-3-2-1z" fill="#19C1BF"/>
<path transform="translate(1063,1350)" d="m0 0 10 6v2l-5-1-5-4z" fill="#79CDD9"/>
<path transform="translate(540,1232)" d="m0 0h2l-1 14h-2v-13z" fill="#16A4AE"/>
<path transform="translate(1038,1200)" d="m0 0 1 2-4 6h-2l-2 4-1-3 5-7z" fill="#41BFCA"/>
<path transform="translate(1371,960)" d="m0 0 5 1 7 3 1 2-5-1-8-3z" fill="#0FC0B8"/>
<path transform="translate(1019,1359)" d="m0 0h9l-4 2-9 2h-5l4-2z" fill="#FDFEFE"/>
<path transform="translate(655,1133)" d="m0 0h7l-6 3h-9l-1-2z" fill="#24C3C7"/>
<path transform="translate(1103,438)" d="m0 0 2 1-12 12v-3z" fill="#11BFBA"/>
<path transform="translate(966,252)" d="m0 0 1 4-4 9h-1l1-7 1-4h2z" fill="#2EB9C2"/>
<path transform="translate(1053,1303)" d="m0 0 2 2-3 9h-2l1-8z" fill="#83CFDB"/>
<path transform="translate(1136,1184)" d="m0 0 3 3 4 8-1 2-6-9z" fill="#1AA7B0"/>
<path transform="translate(819,654)" d="m0 0 2 1v2h-2l-1 4-2 5h-2l1-6 1-2h2z" fill="#15C4BD"/>
<path transform="translate(890,596)" d="m0 0h9l1 3h-6l-4 1z" fill="#26CAC9"/>
<path transform="translate(921,126)" d="m0 0 5 1 4 3v3l-5-2-4-3z" fill="#1EAFB9"/>
<path transform="translate(975,1338)" d="m0 0 3 3 1 8-2 1-2-6z" fill="#77CDD8"/>
<path transform="translate(892,234)" d="m0 0 1 2-3 7-3 1 2-6z" fill="#8BD1DD"/>
</svg>
